<svg width="19" height="19" viewBox="0 0 19 19" fill="none" xmlns="http://www.w3.org/2000/svg">
<path d="M9.77556 0.442535C4.82923 0.442535 0.782227 4.48954 0.782227 9.43587C0.782227 14.3822 4.82923 18.4292 9.77556 18.4292C14.7219 18.4292 18.7689 14.3822 18.7689 9.43587C18.7689 4.48954 14.7219 0.442535 9.77556 0.442535ZM9.77556 16.6305C5.8095 16.6305 2.58089 13.4019 2.58089 9.43587C2.58089 5.46981 5.8095 2.2412 9.77556 2.2412C13.7416 2.2412 16.9702 5.46981 16.9702 9.43587C16.9702 13.4019 13.7416 16.6305 9.77556 16.6305ZM10.2252 4.9392H8.87623V10.3352L13.5528 13.2131L14.2722 12.0439L10.2252 9.61574V4.9392Z" fill="#CCFF00"/>
</svg>
